<svg width="12" height="12" viewBox="0 0 12 12" fill="none" xmlns="http://www.w3.org/2000/svg">
<g id="&#233;&#128;&#154;&#231;&#148;&#168;&#229;&#155;&#190;&#230;&#160;&#135;/&#231;&#186;&#191;&#230;&#128;&#167;/12/[&#230;&#147;&#141;&#228;&#189;&#156;&#231;&#177;&#187;-&#230;&#140;&#137;&#233;&#146;&#174;&#38;&#230;&#155;&#180;&#229;&#164;&#154;]iconCommon_line_12_btnMore">
<path id="&#230;&#164;&#173;&#229;&#156;&#134;&#229;&#189;&#162;" fill-rule="evenodd" clip-rule="evenodd" d="M0 6C0 2.68629 2.68629 0 6 0C9.31371 0 12 2.68629 12 6C12 9.31371 9.31371 12 6 12C2.68629 12 0 9.31371 0 6ZM11 6C11 3.23858 8.76142 1 6 1C3.23858 1 1 3.23858 1 6C1 8.76142 3.23858 11 6 11C8.76142 11 11 8.76142 11 6Z" fill="#4285F4"/>
<path id="&#231;&#159;&#169;&#229;&#189;&#162;" fill-rule="evenodd" clip-rule="evenodd" d="M3.75 5.25V6.75H2.25V5.25H3.75ZM6.75 5.25V6.75H5.25V5.25H6.75ZM9.75 6.75V5.25H8.25V6.75H9.75Z" fill="#4285F4"/>
</g>
</svg>
