<svg width="12" height="12" viewBox="0 0 12 12" fill="none" xmlns="http://www.w3.org/2000/svg">
<g id="&#233;&#128;&#154;&#231;&#148;&#168;&#229;&#155;&#190;&#230;&#160;&#135;/&#231;&#186;&#191;&#230;&#128;&#167;/12/[&#230;&#147;&#141;&#228;&#189;&#156;&#231;&#177;&#187;-&#230;&#140;&#137;&#233;&#146;&#174;&#230;&#146;&#173;&#230;&#148;&#190;&#38;&#229;&#188;&#128;&#229;&#144;&#175;]iconCommon_line_12_btnPlay">
<path id="&#230;&#164;&#173;&#229;&#156;&#134;&#229;&#189;&#162;" fill-rule="evenodd" clip-rule="evenodd" d="M0 6C0 2.68629 2.68629 0 6 0C9.31371 0 12 2.68629 12 6C12 9.31371 9.31371 12 6 12C2.68629 12 0 9.31371 0 6ZM11 6C11 3.23858 8.76142 1 6 1C3.23858 1 1 3.23858 1 6C1 8.76142 3.23858 11 6 11C8.76142 11 11 8.76142 11 6Z" fill="#4285F4"/>
<path id="&#232;&#183;&#175;&#229;&#190;&#132;" fill-rule="evenodd" clip-rule="evenodd" d="M4 3.46713C4 3.31906 4.04383 3.1743 4.12596 3.0511L4.19421 2.9634C4.43939 2.69219 4.85271 2.63421 5.16603 2.84309L8.96533 5.37596C9.04772 5.43089 9.11842 5.50158 9.17334 5.58397C9.40311 5.92862 9.30998 6.39427 8.96533 6.62404L5.16603 9.15691C5.04282 9.23904 4.89807 9.28287 4.75 9.28287C4.33579 9.28287 4 8.94708 4 8.53287V3.46713ZM8.097 6L5 3.934V8.065L8.097 6Z" fill="#4285F4"/>
</g>
</svg>
