<svg width="12" height="12" viewBox="0 0 12 12" fill="none" xmlns="http://www.w3.org/2000/svg">
<g id="&#233;&#128;&#154;&#231;&#148;&#168;&#229;&#155;&#190;&#230;&#160;&#135;/&#231;&#186;&#191;&#230;&#128;&#167;/12/[&#230;&#147;&#141;&#228;&#189;&#156;&#231;&#177;&#187;-&#230;&#140;&#137;&#233;&#146;&#174;&#229;&#136;&#160;&#233;&#153;&#164;]iconCommon_line_12_btnDelete">
<path id="&#230;&#164;&#173;&#229;&#156;&#134;&#229;&#189;&#162;" fill-rule="evenodd" clip-rule="evenodd" d="M0 6C0 2.68629 2.68629 0 6 0C9.31371 0 12 2.68629 12 6C12 9.31371 9.31371 12 6 12C2.68629 12 0 9.31371 0 6ZM11 6C11 3.23858 8.76142 1 6 1C3.23858 1 1 3.23858 1 6C1 8.76142 3.23858 11 6 11C8.76142 11 11 8.76142 11 6Z" fill="#4285F4"/>
<path id="&#232;&#183;&#175;&#229;&#190;&#132;" d="M8.82842 5.5V6.5H3.17157V5.5H8.82842Z" fill="#4285F4"/>
</g>
</svg>
