<svg width="12" height="12" viewBox="0 0 12 12" fill="none" xmlns="http://www.w3.org/2000/svg">
<g id="&#233;&#128;&#154;&#231;&#148;&#168;&#229;&#155;&#190;&#230;&#160;&#135;/&#231;&#186;&#191;&#230;&#128;&#167;/12/[&#230;&#147;&#141;&#228;&#189;&#156;&#231;&#177;&#187;-&#230;&#140;&#137;&#233;&#146;&#174;&#230;&#148;&#185;&#229;&#143;&#152;]iconCommon_line_12_btnChange">
<path id="&#232;&#183;&#175;&#229;&#190;&#132;" fill-rule="evenodd" clip-rule="evenodd" d="M3.5 0H8.5C10.433 0 12 1.567 12 3.5V8.5C12 10.433 10.433 12 8.5 12H3.5C1.567 12 0 10.433 0 8.5V3.5C0 1.567 1.567 0 3.5 0ZM8.5 1H3.5C2.11929 1 1 2.11929 1 3.5V8.5C1 9.88071 2.11929 11 3.5 11H8.5C9.88071 11 11 9.88071 11 8.5V3.5C11 2.11929 9.88071 1 8.5 1Z" fill="#4285F4"/>
<circle id="&#230;&#164;&#173;&#229;&#156;&#134;&#229;&#189;&#162;" cx="6" cy="6" r="2" fill="#4285F4"/>
</g>
</svg>
