<svg width="12" height="12" viewBox="0 0 12 12" fill="none" xmlns="http://www.w3.org/2000/svg">
<g id="&#233;&#128;&#154;&#231;&#148;&#168;&#229;&#155;&#190;&#230;&#160;&#135;/&#231;&#186;&#191;&#230;&#128;&#167;/12/[&#230;&#147;&#141;&#228;&#189;&#156;&#231;&#177;&#187;-&#228;&#184;&#139;&#232;&#189;&#189;]iconCommon_line_12_download">
<path id="Union" d="M2 11H10V10H11V11C11 11.5128 10.6135 11.9354 10.1162 11.9932L10 12H2C1.48716 12 1.0646 11.6135 1.00684 11.1162L1 11V10H2V11ZM8 0C8.55228 1.0308e-05 9 0.447722 9 1V5H10.1982C10.5119 5.00002 10.7716 5.23105 10.8164 5.53223L10.8232 5.625C10.8232 5.79075 10.7578 5.95017 10.6406 6.06738L6.44238 10.2656C6.19831 10.5097 5.8017 10.5097 5.55762 10.2656L1.35938 6.06738C1.1153 5.82331 1.1153 5.42669 1.35938 5.18262C1.47659 5.06541 1.636 5 1.80176 5H3V1C3 0.487164 3.38645 0.064601 3.88379 0.00683594L4 0H8ZM4 5.375C4 5.72017 3.72017 5.99999 3.375 6H2.70703L6 9.29297L9.29199 6H8.625C8.31135 6 8.05165 5.76895 8.00684 5.46777L8 5.375V1H4V5.375Z" fill="#4285F4"/>
</g>
</svg>
