<svg width="12" height="12" viewBox="0 0 12 12" fill="none" xmlns="http://www.w3.org/2000/svg">
<g id="&#233;&#128;&#154;&#231;&#148;&#168;&#229;&#155;&#190;&#230;&#160;&#135;/&#231;&#186;&#191;&#230;&#128;&#167;/12/[&#230;&#147;&#141;&#228;&#189;&#156;&#231;&#177;&#187;-&#231;&#172;&#148;&#38;&#231;&#188;&#150;&#232;&#190;&#145;&#38;&#232;&#135;&#170;&#229;&#174;&#154;&#228;&#185;&#137;]iconCommon_line_12_edit">
<path id="&#232;&#183;&#175;&#229;&#190;&#132;" d="M7.82227 0.47002C8.19644 0.0961863 8.80356 0.0961863 9.17773 0.47002L11.5293 2.82158C11.9034 3.19573 11.9032 3.80277 11.5293 4.17705L3.98828 11.719C3.80865 11.8987 3.56457 11.9992 3.31055 11.9993H0.958008C0.428902 11.9991 2.8292e-05 11.5704 0 11.0413V8.68975C0.000161589 8.43595 0.100893 8.19156 0.280273 8.01201L7.82227 0.47002ZM1 8.70635V11.0003H3.29199L10.793 3.50029L8.5 1.20732L1 8.70635Z" fill="#4285F4"/>
<path id="Union" d="M9.85352 5.14648L9.14648 5.85352L6.14648 2.85352L6.85352 2.14648L9.85352 5.14648Z" fill="#4285F4"/>
<path id="&#232;&#183;&#175;&#229;&#190;&#132;_2" d="M12 11V12H6V11H12Z" fill="#4285F4"/>
</g>
</svg>
