<svg width="12" height="12" viewBox="0 0 12 12" fill="none" xmlns="http://www.w3.org/2000/svg">
<g id="&#233;&#128;&#154;&#231;&#148;&#168;&#229;&#155;&#190;&#230;&#160;&#135;/&#231;&#186;&#191;&#230;&#128;&#167;/12/[&#230;&#147;&#141;&#228;&#189;&#156;&#231;&#177;&#187;-&#230;&#169;&#161;&#231;&#154;&#174;&#230;&#147;&#166;&#38;&#230;&#147;&#166;&#233;&#153;&#164;]iconCommon_line_12_erase">
<path id="&#232;&#183;&#175;&#229;&#190;&#132;" d="M12 11V12H7V11H12Z" fill="#4285F4"/>
<path id="Union" d="M6.79309 0.500114C7.18362 0.109632 7.81664 0.109604 8.20715 0.500114L11.5001 3.79308C11.8905 4.18361 11.8906 4.81667 11.5001 5.20715L5.20715 11.5001C4.81668 11.8906 4.18362 11.8905 3.79309 11.5001L0.500122 8.20715C0.109609 7.81663 0.109632 7.18361 0.500122 6.79308L6.79309 0.500114ZM1.20715 7.50011L4.50012 10.7931L5.79211 9.49914L2.50012 6.20715L1.20715 7.50011ZM3.20715 5.50011L6.49915 8.79211L10.7921 4.49914L7.50012 1.20715L3.20715 5.50011Z" fill="#4285F4"/>
</g>
</svg>
