<svg width="12" height="12" viewBox="0 0 12 12" fill="none" xmlns="http://www.w3.org/2000/svg">
<g id="&#233;&#128;&#154;&#231;&#148;&#168;&#229;&#155;&#190;&#230;&#160;&#135;/&#231;&#186;&#191;&#230;&#128;&#167;/12/[&#230;&#147;&#141;&#228;&#189;&#156;&#231;&#177;&#187;-&#229;&#143;&#145;&#229;&#184;&#131;]iconCommon_line_12_release">
<path id="Union" d="M11.3611 0.129487C11.7372 0.180848 12.0002 0.527811 11.949 0.903901L10.535 11.2789C10.5217 11.3762 10.4868 11.4693 10.4344 11.5523C10.2317 11.8733 9.80717 11.9699 9.48615 11.7672L6.68732 9.9996H2.95295C2.57325 9.9996 2.26545 9.6918 2.26545 9.3121C2.26553 9.16638 2.31183 9.02529 2.3963 8.90878L2.46662 8.82675L3.38166 7.91074L0.526188 6.108C0.413049 6.03643 0.322801 5.93301 0.267399 5.81113C0.110638 5.46561 0.263778 5.05807 0.609196 4.90097L10.9832 0.185151C11.1012 0.131522 11.2327 0.112023 11.3611 0.129487ZM4.97248 7.73203L6.97931 8.9996H6.99982V9.0123L9.6092 10.6607L10.8026 1.90292L4.97248 7.73203ZM3.70588 8.9996H5.10431L4.24689 8.45761L3.70588 8.9996ZM1.54963 5.57089L4.10627 7.18515L9.19806 2.09335L1.54963 5.57089Z" fill="#4285F4"/>
</g>
</svg>
