<svg width="12" height="12" viewBox="0 0 12 12" fill="none" xmlns="http://www.w3.org/2000/svg">
<g id="&#233;&#128;&#154;&#231;&#148;&#168;&#229;&#155;&#190;&#230;&#160;&#135;/&#231;&#186;&#191;&#230;&#128;&#167;/12/[&#230;&#147;&#141;&#228;&#189;&#156;&#231;&#177;&#187;-&#230;&#144;&#156;&#231;&#180;&#162;&#38;&#230;&#159;&#165;&#232;&#175;&#162;]iconCommon_line_12_search">
<path id="Union" d="M5 0C7.76142 0 10 2.23858 10 5C10 6.20064 9.57644 7.30213 8.87109 8.16406L11.8535 11.1465L11.1465 11.8535L8.16406 8.87109C7.30213 9.57644 6.20064 10 5 10C2.23858 10 0 7.76142 0 5C0 2.23858 2.23858 0 5 0ZM5 1C2.79086 1 1 2.79086 1 5C1 7.20914 2.79086 9 5 9C7.20914 9 9 7.20914 9 5C9 2.79086 7.20914 1 5 1Z" fill="#4285F4"/>
</g>
</svg>
