<svg width="12" height="12" viewBox="0 0 12 12" fill="none" xmlns="http://www.w3.org/2000/svg">
<g id="&#233;&#128;&#154;&#231;&#148;&#168;&#229;&#155;&#190;&#230;&#160;&#135;/&#231;&#186;&#191;&#230;&#128;&#167;/12/[&#230;&#147;&#141;&#228;&#189;&#156;&#231;&#177;&#187;-&#229;&#133;&#179;&#230;&#156;&#186;&#38;&#229;&#129;&#156;&#231;&#148;&#168;]iconCommon_line_12_shutdown">
<path id="Union" d="M3.27344 1.80762C1.86596 2.72517 1 4.28866 1 6C1 8.76142 3.23858 11 6 11C8.76142 11 11 8.76142 11 6C11 4.37146 10.2157 2.87684 8.92676 1.94531L8.72949 1.81055L9.27637 0.972656C10.9619 2.07332 12 3.94873 12 6C12 9.31371 9.31371 12 6 12C2.68629 12 0 9.31371 0 6C3.08512e-07 4.03274 0.954727 2.22771 2.51953 1.1123L2.72754 0.970703L3.27344 1.80762ZM6.5 6H5.5V0H6.5V6Z" fill="#4285F4"/>
</g>
</svg>
