<svg width="12" height="12" viewBox="0 0 12 12" fill="none" xmlns="http://www.w3.org/2000/svg">
<g id="&#233;&#128;&#154;&#231;&#148;&#168;&#229;&#155;&#190;&#230;&#160;&#135;/&#231;&#186;&#191;&#230;&#128;&#167;/12/[&#230;&#147;&#141;&#228;&#189;&#156;&#231;&#177;&#187;-&#228;&#184;&#138;&#228;&#188;&#160;]iconCommon_line_12_upload">
<path id="Union" d="M5.55762 1.73438C5.80169 1.49032 6.19831 1.49031 6.44238 1.73438L10.6406 5.93262C10.7578 6.04982 10.8232 6.20926 10.8232 6.375C10.8232 6.72016 10.5434 6.99998 10.1982 7H9V11C8.99999 11.5128 8.61354 11.9354 8.11621 11.9932L8 12H4C3.44772 12 3.00001 11.5523 3 11V7H1.80176C1.66915 7 1.54058 6.95773 1.43457 6.88086L1.35938 6.81738C1.11531 6.57331 1.11531 6.17669 1.35938 5.93262L5.55762 1.73438ZM2.70605 6H3.375C3.68865 6.00001 3.94835 6.23105 3.99316 6.53223L4 6.625V11H8V6.625C8.00001 6.27983 8.27983 6 8.625 6H9.29297L6 2.70703L2.70605 6ZM10 0C10.5128 0 10.9354 0.38645 10.9932 0.883789L11 1V2H10V1H2V2H1V1C1 0.487164 1.38645 0.064601 1.88379 0.00683594L2 0H10Z" fill="#4285F4"/>
</g>
</svg>
